<svg width="22" height="32" viewBox="0 0 22 32" fill="none" xmlns="http://www.w3.org/2000/svg">
    <path d="M10.5469 10.6094C13.5 10.6094 15.9375 13.0469 15.9375 16C15.9375 19 13.5 21.3906 10.5469 21.3906C7.54688 21.3906 5.15625 19 5.15625 16C5.15625 13.0469 7.54688 10.6094 10.5469 10.6094ZM10.5469 19.5156C12.4688 19.5156 14.0156 17.9688 14.0156 16C14.0156 14.0781 12.4688 12.5312 10.5469 12.5312C8.57812 12.5312 7.03125 14.0781 7.03125 16C7.03125 17.9688 8.625 19.5156 10.5469 19.5156ZM17.3906 10.4219C17.3906 9.71875 16.8281 9.15625 16.125 9.15625C15.4219 9.15625 14.8594 9.71875 14.8594 10.4219C14.8594 11.125 15.4219 11.6875 16.125 11.6875C16.8281 11.6875 17.3906 11.125 17.3906 10.4219ZM20.9531 11.6875C21.0469 13.4219 21.0469 18.625 20.9531 20.3594C20.8594 22.0469 20.4844 23.5 19.2656 24.7656C18.0469 25.9844 16.5469 26.3594 14.8594 26.4531C13.125 26.5469 7.92188 26.5469 6.1875 26.4531C4.5 26.3594 3.04688 25.9844 1.78125 24.7656C0.5625 23.5 0.1875 22.0469 0.09375 20.3594C0 18.625 0 13.4219 0.09375 11.6875C0.1875 10 0.5625 8.5 1.78125 7.28125C3.04688 6.0625 4.5 5.6875 6.1875 5.59375C7.92188 5.5 13.125 5.5 14.8594 5.59375C16.5469 5.6875 18.0469 6.0625 19.2656 7.28125C20.4844 8.5 20.8594 10 20.9531 11.6875ZM18.7031 22.1875C19.2656 20.8281 19.125 17.5469 19.125 16C19.125 14.5 19.2656 11.2188 18.7031 9.8125C18.3281 8.92188 17.625 8.17188 16.7344 7.84375C15.3281 7.28125 12.0469 7.42188 10.5469 7.42188C9 7.42188 5.71875 7.28125 4.35938 7.84375C3.42188 8.21875 2.71875 8.92188 2.34375 9.8125C1.78125 11.2188 1.92188 14.5 1.92188 16C1.92188 17.5469 1.78125 20.8281 2.34375 22.1875C2.71875 23.125 3.42188 23.8281 4.35938 24.2031C5.71875 24.7656 9 24.625 10.5469 24.625C12.0469 24.625 15.3281 24.7656 16.7344 24.2031C17.625 23.8281 18.375 23.125 18.7031 22.1875Z" fill="#D1D5DB"/>
</svg>
