<svg width="24" height="32" viewBox="0 0 24 32" fill="none" xmlns="http://www.w3.org/2000/svg">
    <path d="M21.5156 11.125C21.5156 11.3594 21.5156 11.5469 21.5156 11.7812C21.5156 18.2969 16.5938 25.75 7.54688 25.75C4.73438 25.75 2.15625 24.9531 0 23.5469C0.375 23.5938 0.75 23.6406 1.17188 23.6406C3.46875 23.6406 5.57812 22.8438 7.26562 21.5312C5.10938 21.4844 3.28125 20.0781 2.67188 18.1094C3 18.1562 3.28125 18.2031 3.60938 18.2031C4.03125 18.2031 4.5 18.1094 4.875 18.0156C2.625 17.5469 0.9375 15.5781 0.9375 13.1875V13.1406C1.59375 13.5156 2.39062 13.7031 3.1875 13.75C1.82812 12.8594 0.984375 11.3594 0.984375 9.67188C0.984375 8.73438 1.21875 7.89062 1.64062 7.1875C4.07812 10.1406 7.73438 12.1094 11.8125 12.3438C11.7188 11.9688 11.6719 11.5938 11.6719 11.2188C11.6719 8.5 13.875 6.29688 16.5938 6.29688C18 6.29688 19.2656 6.85938 20.2031 7.84375C21.2812 7.60938 22.3594 7.1875 23.2969 6.625C22.9219 7.79688 22.1719 8.73438 21.1406 9.34375C22.125 9.25 23.1094 8.96875 23.9531 8.59375C23.2969 9.57812 22.4531 10.4219 21.5156 11.125Z" fill="#D1D5DB"/>
</svg>
